<svg width="1280" height="520" viewBox="0 0 1280 520" fill="none" xmlns="http://www.w3.org/2000/svg" role="img" aria-labelledby="title desc">
  <title id="title">Aidin-Doosan thesis teaser placeholder</title>
  <desc id="desc">A clean public placeholder illustration for a Doosan arm, Aidin hand, tactile sensing, and imitation learning workflow.</desc>
  <rect width="1280" height="520" rx="28" fill="#f7f5ef"/>
  <rect x="40" y="40" width="1200" height="440" rx="22" fill="#ffffff" stroke="#d9d6ca" stroke-width="2"/>
  <path d="M164 375 C238 302 286 242 341 164" stroke="#2f6f73" stroke-width="24" stroke-linecap="round"/>
  <circle cx="352" cy="148" r="34" fill="#2f6f73"/>
  <path d="M379 149 C462 160 522 198 573 272" stroke="#5b7fbd" stroke-width="24" stroke-linecap="round"/>
  <circle cx="591" cy="296" r="34" fill="#5b7fbd"/>
  <path d="M617 314 L706 378" stroke="#bb7a35" stroke-width="22" stroke-linecap="round"/>
  <path d="M724 382 L770 347 M725 383 L781 388 M725 383 L762 430" stroke="#bb7a35" stroke-width="15" stroke-linecap="round"/>
  <rect x="835" y="118" width="292" height="72" rx="12" fill="#eef5f5" stroke="#b9cdce" stroke-width="2"/>
  <rect x="835" y="224" width="292" height="72" rx="12" fill="#f1f4fb" stroke="#c6d1eb" stroke-width="2"/>
  <rect x="835" y="330" width="292" height="72" rx="12" fill="#fbf1e5" stroke="#ead0ad" stroke-width="2"/>
  <text x="981" y="162" text-anchor="middle" font-family="Inter, Arial, sans-serif" font-size="26" font-weight="700" fill="#24494b">Vision</text>
  <text x="981" y="268" text-anchor="middle" font-family="Inter, Arial, sans-serif" font-size="26" font-weight="700" fill="#334b82">Tactile</text>
  <text x="981" y="374" text-anchor="middle" font-family="Inter, Arial, sans-serif" font-size="26" font-weight="700" fill="#7a4b16">Policy</text>
  <path d="M775 260 H820" stroke="#6f746e" stroke-width="4" stroke-linecap="round"/>
  <path d="M810 248 L824 260 L810 272" stroke="#6f746e" stroke-width="4" stroke-linecap="round" stroke-linejoin="round"/>
  <text x="455" y="448" text-anchor="middle" font-family="Inter, Arial, sans-serif" font-size="22" fill="#5f625d">Replace with a system photo, rollout frame, or final project figure</text>
</svg>

