<svg width="960" height="420" viewBox="0 0 960 420" fill="none" xmlns="http://www.w3.org/2000/svg" role="img" aria-labelledby="title desc">
  <title id="title">Learning curve placeholder</title>
  <desc id="desc">A placeholder plot for future training and evaluation curves.</desc>
  <rect width="960" height="420" rx="24" fill="#ffffff"/>
  <rect x="34" y="30" width="892" height="360" rx="18" fill="#faf9f5" stroke="#dedbd1" stroke-width="2"/>
  <path d="M118 324 H830" stroke="#777b74" stroke-width="3" stroke-linecap="round"/>
  <path d="M118 324 V86" stroke="#777b74" stroke-width="3" stroke-linecap="round"/>
  <path d="M118 278 C205 250 252 225 320 210 C399 193 444 169 516 152 C605 130 666 118 830 103" stroke="#2f6f73" stroke-width="7" stroke-linecap="round"/>
  <path d="M118 304 C208 294 269 271 338 246 C430 212 486 196 552 180 C642 158 714 146 830 139" stroke="#5b7fbd" stroke-width="7" stroke-linecap="round"/>
  <circle cx="830" cy="103" r="9" fill="#2f6f73"/>
  <circle cx="830" cy="139" r="9" fill="#5b7fbd"/>
  <text x="474" y="66" text-anchor="middle" font-family="Inter, Arial, sans-serif" font-size="28" font-weight="700" fill="#31352f">Learning Curve Placeholder</text>
  <text x="474" y="365" text-anchor="middle" font-family="Inter, Arial, sans-serif" font-size="18" fill="#626760">Training steps</text>
  <text x="73" y="212" text-anchor="middle" font-family="Inter, Arial, sans-serif" font-size="18" fill="#626760" transform="rotate(-90 73 212)">Metric</text>
  <rect x="632" y="238" width="174" height="66" rx="10" fill="#ffffff" stroke="#d7d3c9"/>
  <circle cx="656" cy="262" r="7" fill="#2f6f73"/>
  <text x="674" y="268" font-family="Inter, Arial, sans-serif" font-size="16" fill="#3f453d">Vision + tactile</text>
  <circle cx="656" cy="287" r="7" fill="#5b7fbd"/>
  <text x="674" y="293" font-family="Inter, Arial, sans-serif" font-size="16" fill="#3f453d">Baseline</text>
</svg>

